<?xml version="1.0" standalone="no"?>
<!DOCTYPE svg PUBLIC "-//W3C//DTD SVG 20010904//EN"
 "http://www.w3.org/TR/2001/REC-SVG-20010904/DTD/svg10.dtd">
<svg version="1.0" xmlns="http://www.w3.org/2000/svg"
 width="700.000000pt" height="700.000000pt" viewBox="0 0 700.000000 700.000000"
 preserveAspectRatio="xMidYMid meet">
<metadata>
Created by potrace 1.11, written by Peter Selinger 2001-2013
</metadata>
<g transform="translate(0.000000,700.000000) scale(0.100000,-0.100000)"
fill="#000000" stroke="none">
<path d="M3278 6996 c-1 -2 -41 -6 -88 -10 -87 -7 -105 -9 -225 -27 -116 -18
-123 -19 -192 -35 -154 -34 -203 -47 -313 -81 -280 -85 -609 -239 -855 -400
-682 -446 -1173 -1079 -1429 -1845 -31 -94 -79 -267 -91 -329 -3 -13 -12 -58
-20 -99 -8 -41 -17 -89 -19 -105 -3 -17 -7 -46 -11 -66 -6 -40 -10 -75 -22
-199 -15 -162 -8 -592 12 -711 2 -13 6 -46 9 -74 9 -78 23 -156 51 -285 23
-107 88 -333 114 -395 5 -11 25 -65 46 -120 63 -166 249 -531 312 -610 4 -6
34 -49 65 -95 157 -235 400 -500 648 -707 81 -67 304 -233 314 -233 3 0 32
-18 65 -40 33 -22 63 -40 67 -40 4 0 15 -6 23 -14 29 -25 304 -161 431 -213
165 -67 424 -150 563 -179 101 -21 216 -41 277 -49 25 -3 56 -7 69 -10 135
-26 700 -26 839 0 16 3 104 15 147 20 179 23 497 112 740 208 134 53 419 193
463 227 13 11 29 20 34 20 5 0 14 5 21 10 7 6 59 41 117 79 237 154 505 387
682 595 34 39 64 73 68 76 14 11 141 181 202 270 114 167 231 375 302 540 16
36 36 83 46 105 54 123 147 418 176 560 17 81 54 301 59 350 4 33 9 71 11 85
9 46 11 524 4 605 -12 128 -21 202 -25 227 -3 13 -8 43 -11 68 -3 25 -9 61
-14 80 -5 19 -12 51 -15 70 -12 73 -65 269 -100 374 -263 785 -777 1439 -1476
1878 -114 72 -337 190 -439 233 -36 15 -83 35 -105 45 -119 52 -416 142 -580
175 -44 9 -89 19 -100 21 -11 2 -38 6 -60 9 -22 3 -51 7 -65 10 -13 2 -52 7
-86 11 -33 3 -74 8 -90 10 -33 5 -540 14 -546 10z m542 -552 c247 -28 559
-103 745 -179 518 -212 918 -506 1245 -913 180 -225 326 -474 434 -739 148
-367 210 -684 210 -1093 1 -342 -17 -496 -95 -790 -58 -218 -185 -523 -301
-725 -204 -351 -537 -706 -898 -956 -176 -122 -437 -255 -655 -334 -130 -47
-389 -117 -480 -129 -27 -4 -51 -9 -54 -10 -6 -4 -59 -11 -201 -26 -77 -8
-549 -6 -586 3 -12 3 -45 8 -75 12 -73 8 -246 42 -344 66 -420 106 -823 314
-1180 609 -78 64 -330 326 -404 419 -221 279 -395 605 -505 951 -20 62 -39
127 -42 143 -2 17 -7 34 -9 38 -3 4 -12 42 -20 86 -8 43 -17 89 -20 103 -3 14
-8 41 -11 60 -3 19 -7 46 -10 60 -27 160 -26 639 1 805 6 33 15 88 21 123 2
12 6 33 8 47 3 14 7 33 10 43 3 9 7 28 10 42 20 115 108 385 172 530 158 355
375 665 658 939 102 99 88 87 189 169 449 366 1042 609 1582 648 44 4 82 8 84
10 10 9 417 0 521 -12z"/>
<path d="M3488 5925 c-2 -1 -25 -5 -53 -8 -75 -8 -171 -43 -235 -87 -63 -43
-144 -128 -166 -175 -8 -16 -18 -37 -23 -45 -49 -81 -60 -279 -22 -392 105
-313 453 -457 756 -312 83 40 192 149 233 234 104 217 67 454 -98 621 -95 96
-202 145 -357 163 -18 2 -34 2 -35 1z"/>
<path d="M1858 5115 c-2 -2 -25 -5 -53 -8 -98 -11 -200 -60 -290 -138 -71 -63
-143 -195 -160 -294 -6 -41 -8 -158 -2 -185 20 -93 43 -148 91 -220 96 -142
281 -235 455 -229 341 12 585 328 507 659 -52 228 -254 398 -488 413 -32 2
-59 3 -60 2z"/>
<path d="M5045 5110 c-323 -43 -537 -370 -445 -680 44 -148 130 -255 260 -324
319 -169 708 10 780 359 44 214 -44 436 -220 554 -68 45 -154 80 -214 87 -23
2 -54 6 -71 8 -16 2 -57 0 -90 -4z"/>
<path d="M3410 4024 c-73 -22 -143 -91 -155 -152 -1 -10 -12 -48 -23 -87 -12
-38 -44 -153 -72 -255 -28 -102 -59 -214 -70 -250 -10 -36 -44 -155 -74 -265
-31 -110 -83 -297 -116 -415 -33 -118 -63 -225 -66 -238 -2 -13 -11 -42 -18
-65 -8 -23 -39 -136 -71 -250 -54 -196 -56 -211 -45 -255 21 -83 87 -147 176
-169 25 -6 264 -9 645 -9 l604 2 48 23 c59 29 111 88 126 144 14 48 9 77 -41
247 -16 58 -31 112 -33 120 -4 18 -220 795 -261 935 -13 45 -127 457 -200 720
-32 117 -69 171 -139 205 -56 27 -153 33 -215 14z"/>
</g>
</svg>
